<?xml version="1.0" encoding="utf-8"?>
<!-- Generator: Adobe Illustrator 28.1.0, SVG Export Plug-In . SVG Version: 6.00 Build 0)  -->
<svg version="1.1" id="圖層_1" xmlns="http://www.w3.org/2000/svg" xmlns:xlink="http://www.w3.org/1999/xlink" x="0px" y="0px"
	 viewBox="0 0 1042 951" style="enable-background:new 0 0 1042 951;" xml:space="preserve">
<style type="text/css">
	.st0{fill-rule:evenodd;clip-rule:evenodd;fill:#FFA81C;}
    .ani01{animation: drawing-svg 5s infinite;}

    @keyframes drawing-svg {
  100% {
    stroke-dashoffset: 0;
  }
}
</style>
<path class="st0" d="M22.4,865.7h848.1c18.4,0,28.2,21.8,15.8,35.6L848.2,944c-4.1,4.5-9.8,7-15.9,7H60.6c-6.1,0-11.9-2.6-16-7
	L6.4,901.3C-5.8,887.5,3.9,865.7,22.4,865.7z"/>
<path class="st0" d="M918.4,333.5c48.7,2.9,123.5,24.5,123.5,130.4c0,0,6,152.7-250,252.7c18.9-31.5,33.8-64.9,45.7-98.7
	c125.2-43.5,133-154.8,133-154.8c4.3-81.8-71.2-67.1-90.6-62.6c1.6-25.8,2.2-48.2,2.2-65.9C888.9,333.7,902.2,332.5,918.4,333.5z"/>
<path class="st0" d="M48.1,289.2h394.6h0.2h395.3v5.9c0,0,29.3,399.8-214.7,527.8H442.9h-0.2H262C18,694.9,48.1,295.1,48.1,295.1
	V289.2z"/>
<path class="st0 ani01" d="M379.4,60.2c15.2,24.7,27.7,66.7-19.9,108.5c-0.6,0.6-30.1,30.9-18.1,79.6c0.6,2.8-2.8,4.6-4.5,2.3
	c-14.4-20.3-38.8-66.9,1.3-113.8c35.9-41.7,42-58.5,36.6-74.3C373.9,59.6,377.7,57.5,379.4,60.2z"/>
<path class="st0 ani01" d="M588.5,1.1c20.7,30.2,43,86.7-21.1,143.2c-0.1,0.1-0.1,0-0.1,0.1c-0.8,0.6-39.4,40.2-21.9,104.1
	c0.8,2.7-2.7,4.5-4.5,2.2c-17.7-23.7-53.2-85.2-0.5-146.5c50.1-58.5,54.2-78.4,43.7-100.5C582.8,0.8,586.9-1.4,588.5,1.1z"/>
</svg>
