<?xml version="1.0" encoding="UTF-8"?><svg id="uuid-9025c019-6630-4264-a372-0c055841b399" xmlns="http://www.w3.org/2000/svg" viewBox="0 0 480 704"><defs><style>.uuid-4ef4647c-8a9c-4797-b70b-41d4e1a6f9b0{fill:#fafafa;}.uuid-c0514be0-1f2a-488e-9698-b787aa37c0e0{fill:#ff7403;}.uuid-02d6d914-949e-407c-b36d-64e20a69aa09{fill:#1c94ff;}.uuid-43cd0cb8-92f4-455f-be5e-065ab2ece5b0{fill:#404040;}.path {stroke-dashoffset:1940;stroke-dasharray:1940;animation: draw 10s linear infinite;fill-opacity: 0;stroke: #404040;}@keyframes draw {30%{fill-opacity: 0;}31%{fill-opacity: 1;}32%{fill-opacity: 0;}33%{fill-opacity: 1;}34%{fill-opacity: 0;}35%{fill-opacity: 1;}50%{stroke-dashoffset:0;}90%{stroke-dashoffset:0;fill-opacity: 1;}}</style></defs><rect class="uuid-4ef4647c-8a9c-4797-b70b-41d4e1a6f9b0" width="480" height="704"/><g class="path"><path class="uuid-43cd0cb8-92f4-455f-be5e-065ab2ece5b0" d="M206.78,296.02h33.18c1.79,0,3.07-.71,3.46-2.26-4.36-4.67-11.66-11.33-11.66-11.33l-6.41,9.63h-15.76c1.41-2.27,2.82-4.53,4.1-6.94,2.95,.14,4.61-.99,5.12-2.69l-19.22-6.8c-4.23,16.42-12.04,32-19.86,41.34l1.41,1.42c9.22-4.96,18.19-12.18,25.62-22.37Z"/><path class="uuid-43cd0cb8-92f4-455f-be5e-065ab2ece5b0" d="M299.95,336.14h-17.29v-16.14l-7.81-8.54-7.94,8.54h-15.4v4.11h16.55v12.03h-16.55v3.96h16.55v12.03h-16.55v4.11h16.55v5.66h2.56c1.92,0,12.04-3.54,12.04-3.96v-17.84h14.09c1.79,0,3.2-3.96,3.2-3.96Z"/><path class="uuid-43cd0cb8-92f4-455f-be5e-065ab2ece5b0" d="M263.61,296.02h33.18c1.79,0,3.07-.71,3.46-2.26-4.36-4.67-11.66-11.33-11.66-11.33l-6.41,9.63h-15.76c1.41-2.27,2.82-4.53,4.1-6.94,2.95,.14,4.61-.99,5.12-2.69l-19.22-6.8c-3.35,13.02-8.96,25.5-15.04,34.77l-7.29-.75v10.34h-34.08l1.15,4.11h32.92v12.03h-47.27l1.02,3.96h46.25v12.03h-35.23l1.15,4.11h34.08v12.32h-37.92l1.02,3.96h36.9v11.61h-46.38l1.02,4.11h45.35v3.22c.52-.42,1.18-.68,1.91-.68l10.96,.06c.58-.01,1.12,.16,1.59,.45v-79.76c5.39-4.17,10.51-9.28,15.05-15.51Z"/><path class="uuid-43cd0cb8-92f4-455f-be5e-065ab2ece5b0" d="M270.12,368.56h-18.62v3.96h37.05c1.92,0,3.72-3.96,3.72-3.96h-22.15Z"/><path class="uuid-43cd0cb8-92f4-455f-be5e-065ab2ece5b0" d="M251.5,388.24h45.25c1.67,0,3.33-4.11,3.33-4.11h-48.58v4.11Z"/></g><rect class="uuid-02d6d914-949e-407c-b36d-64e20a69aa09" x="213.46" y="298.71" width="12.46" height="12.46" transform="translate(281.93 -65.7) rotate(45.3)"/><rect class="uuid-02d6d914-949e-407c-b36d-64e20a69aa09" x="272.34" y="298.71" width="12.46" height="12.46" transform="translate(299.4 -107.56) rotate(45.3)"/><path class="uuid-c0514be0-1f2a-488e-9698-b787aa37c0e0" d="M246.97,391.84l-10.96-.06c-1.68,0-3.02,1.32-3.03,2.99,0,1.47,1.02,2.69,2.4,2.97l-5.39,10.49,8.98,19.99h.79l.07-12.43c-1.15-.49-1.97-1.67-2-3.01,.03-1.86,1.7-3.39,3.57-3.39,1.86,0,3.23,1.58,3.23,3.44,0,.02,0,.04,0,.06-.03,.32-.09,.62-.18,.9-.3,.89-.96,1.62-1.86,2l.08,12.55h.79l9.19-20.05-5.22-10.48c1.44-.23,2.52-1.45,2.53-2.96,0-1.68-1.37-3.07-2.99-3.03Z"/></svg>