<?xml version="1.0" encoding="utf-8"?><svg version="1.1"
	 id="new-20220716_logo-light-horizontal" shape-rendering="geometricPrecision" text-rendering="geometricPrecision" xmlns="http://www.w3.org/2000/svg" xmlns:xlink="http://www.w3.org/1999/xlink" x="0px" y="0px" viewBox="0 0 1920 1080"
	 style="enable-background:new 0 0 1920 1080;" xml:space="preserve"><style type="text/css">
	.st0{fill:#FAFAFA;}.st1{fill:#4D4D4D;}.st2{fill:#FFA81C;}.st3{fill:#FF7403;}.st4{fill:#1C94FF;}.path {stroke-dashoffset:1940;stroke-dasharray:1940;animation: draw 10s linear infinite;fill-opacity: 0;stroke:#4d4d4d;stroke-width:1.5;}@keyframes draw {30%{fill-opacity: 0;}31%{fill-opacity: 1;}32%{fill-opacity: 0;}33%{fill-opacity: 1;}34%{fill-opacity: 0;}35%{fill-opacity: 1;}50%{stroke-dashoffset:0;}90%{stroke-dashoffset:0;fill-opacity: 1;}}
</style><rect class="st0" width="1920" height="1080"/><g id="new-20220716_logo-light-horizontal-s-g1" class="path"><path id="new-20220716_logo-light-horizontal-s-path1" class="st1" d="M611.3,521l-11.9-11.2l-6.8,9.5h-9.1
		c0.3-6.2,0.6-14.5,0.7-20.7H613c1.7,0,3.3-1.6,3.3-1.6H535l0.9,1.6h33.5c0.9,31.3-0.2,64.6-14.2,90.8l1.1,1.2
		c18.8-17.7,25-42.8,27.1-69.5h10.5c-0.9,32.9-2.5,47.9-5.7,51.1c-1.1,1-1.9,1.4-3.6,1.4c-2.2,0-7.4-0.4-10.5-0.6v1.8
		c3.7,0.9,6.4,2.5,7.8,4.5c1.4,2,1.8,5.5,1.8,9.8c5.5,0,10.1-1.6,13.8-5.2c6-6,8.1-20.3,9.1-60.5C609,523,610.4,522.2,611.3,521
		L611.3,521z"/><path id="new-20220716_logo-light-horizontal-s-path2" class="st1" d="M668.5,516.4l0.2-1.8c-10.9-7.9-21.9-21.7-26.5-38.8
		c3.2-0.4,4.4-1.3,4.7-3.1l-19-4.8c-2.2,18.2-10.1,45.4-21.1,62.4l1.2,1c15.1-12.8,26.2-32.6,32.5-50.5c3.3,18.3,9.2,36.5,18.1,48.5
		C659.6,523.8,663.2,519.4,668.5,516.4L668.5,516.4z"/><path id="new-20220716_logo-light-horizontal-s-path3" class="st1" d="M1274,511.2l0.9,3.6h51.8c1.7,0,3.2-3.6,3.2-3.6H1274
		L1274,511.2z"/><path id="new-20220716_logo-light-horizontal-s-path4" class="st1" d="M1280.4,531.7h41.2c1.7,0,3.1-3.8,3.1-3.8h-45.2
		L1280.4,531.7z"/><path id="new-20220716_logo-light-horizontal-s-path5" class="st1" d="M1280.4,548.5h41.2c1.7,0,3.1-3.8,3.1-3.8h-45.2
		L1280.4,548.5z"/><path id="new-20220716_logo-light-horizontal-s-path6" class="st1" d="M1380.2,588.2l-0.5-17.8h-1.3c-2,8.1-3.9,14.8-5.3,17.2
		c-0.8,1.3-1.7,1.7-3.3,1.8c-1.8,0.1-5.8,0.3-10.4,0.3h-12.2c-4.3,0-5.2-0.8-5.2-3.1v-47.3h21.5v11.6h2c4.5,0,11.1-2.6,11.2-3.5
		v-43.4c2.9-0.6,4.8-2.1,5.8-3.2l-13.9-11.8l-6.5,8.2h-35.8l1.1,3.6h36.1v35H1329v54.1c0,10.4,3.3,13,15.8,13h13.4
		c21.3,0,26.8-2.3,26.8-8.6C1385,591.5,1384.1,589.9,1380.2,588.2L1380.2,588.2z"/><path id="new-20220716_logo-light-horizontal-s-path7" class="st1" d="M1074.2,515.7c12.4,8.3,21.4-18.2-10.4-19.8l-0.9,1
		C1067.5,501.4,1072.6,508.8,1074.2,515.7z"/><path id="new-20220716_logo-light-horizontal-s-path8" class="st1" d="M1085.6,542c1.7-6.5,10.4-34.3,15.2-49.2l-1.8-0.6
		c-15.1,32.9-23.5,50.9-25.3,54.1c-1.4,2.6-2,2.7-3.8,2.7h-5.5v2.3c2.6,0.3,4.6,0.9,6.2,2.2c2.8,2.1,3.3,13.7,1.1,27.3
		c1.1,4.7,3.7,6.6,6.5,6.6c5.9,0,9.9-4.2,10.1-10.8c0.3-11.3-4.5-15.7-4.7-22.5C1083.6,550.8,1084.5,546.3,1085.6,542L1085.6,542z"
		/><path id="new-20220716_logo-light-horizontal-s-path9" class="st1" d="M1072.6,467.5l-0.9,1c4.6,4.7,10.4,12.8,12.4,19.8
		C1097.1,496.1,1105.5,469,1072.6,467.5L1072.6,467.5z"/><path id="new-20220716_logo-light-horizontal-s-path10" class="st1" d="M1143.7,511.8h27.9c1.7,0,3.3-3.8,3.3-3.8h-31.2
		L1143.7,511.8L1143.7,511.8z"/><path id="new-20220716_logo-light-horizontal-s-path11" class="st1" d="M1062.3,563.7c-5.7-5.3-15.1-13-15.1-13L1039,562h-12.3v3.8
		h32.4C1060.8,565.8,1062,565.2,1062.3,563.7L1062.3,563.7z"/><path id="new-20220716_logo-light-horizontal-s-path12" class="st1" d="M1048.6,604.8h-21.9v3.8h42.3c1.8,0,3.1-0.6,3.4-2.1
		c-5.9-5.5-15.4-13.5-15.4-13.5L1048.6,604.8L1048.6,604.8z"/><path id="new-20220716_logo-light-horizontal-s-path13" class="st1" d="M1065.9,526.7c-5.8-5.3-14.8-12.6-14.8-12.6l-8.1,11h-16.2
		v3.6h35.6C1064.2,528.8,1065.5,528.1,1065.9,526.7L1065.9,526.7z"/><path id="new-20220716_logo-light-horizontal-s-path14" class="st1" d="M1009.2,525.1h-19c2.9-5.6,5.4-11.7,7.8-18.3
		c2.7,0,4.2-1.2,4.6-2.7l-19.8-6.5c-4.1,23.5-12.8,47.1-21.9,61.9l1.3,1.2c10.1-7.8,18.8-18.5,26.1-31.9h20.8v33.3h-33.3l0.9,3.8
		h32.4v39H962l0.9,3.8h61.1V474.5l-14.9-5.7C1009.2,468.8,1009.2,525.1,1009.2,525.1z"/><path id="new-20220716_logo-light-horizontal-s-path15" class="st1" d="M732,585.3v-20.5h33.2c1.8,0,2.9-0.4,3.3-1.8
		c-5.3-5.5-14.4-13.7-14.4-13.7l-7.9,13.7H732V543h43.4c1.6,0,2.9-0.2,3.3-1.6c-4.1-4.1-4-4.6-13.3-13l-7.5,13h-89.1l0.9,1.6h47.5
		v40.3c-6.9-2.1-12.1-6-16.1-13.3c2.2-4.7,3.8-9.4,4.9-14.2c2.9,0,4-1.2,4.5-3l-15.6-3c-1.5,20.3-28.4,59.1-45.1,72.8l0.9,1.3
		c15.6-6.8,42.8-39.8,48.8-50.9c6.7,20.6,18.2,25.6,39.2,25.6h33.8c0-5.7,2.1-10.9,6.5-12v-1.6c-9.4,0.3-31.1,0.3-40,0.3
		C736.6,585.4,734.2,585.4,732,585.3L732,585.3z"/><path id="new-20220716_logo-light-horizontal-s-path16" class="st1" d="M702.8,531.2v-43.4l-14.5-6.4v54.5h2.1
		C696,535.9,702,532.9,702.8,531.2z"/><path id="new-20220716_logo-light-horizontal-s-path17" class="st1" d="M745,533.7h2.5c4.7,0,12.1-2.9,12.2-3.6v-39.9h-54.2v1.6
		H745v15.8h-39.5v1.6H745v16h-39.5v1.8H745V533.7z"/><path id="new-20220716_logo-light-horizontal-s-path18" class="st1" d="M1141,484.2c7.9-1,25.3-4.4,26.7-5.5l-11.5-12.4
		c-12.9,6.6-38.2,15.4-58.1,19.8l0.2,1.9c9.2-0.3,19.2-1,28.7-2.1V508h-30.7l0.9,3.8h29.8v25h-9.9l-14.1-6.2v56.3h1.8
		c5.8,0,11.7-3.2,11.7-4.7v-6.6h32.7v-3.8h-32.7v-31.2h32.7v-3.8h-8.1V484.2L1141,484.2z"/><path id="new-20220716_logo-light-horizontal-s-path19" class="st1" d="M1152.1,540.6v45.6h2.3c4.7,0,11.3-3.2,11.4-4.3V543
		c2.3-0.5,4.8-6.2,4.8-6.2h-18.6V540.6L1152.1,540.6z"/><path id="new-20220716_logo-light-horizontal-s-path20" class="st1" d="M977.2,455H866l0.9,3.8h44.4v165.2h2.7c7.3,0,12-3.5,12-4.7
		V458.8h47.7C975.5,458.8,977.2,455,977.2,455L977.2,455z"/><path id="new-20220716_logo-light-horizontal-s-path21" class="st1" d="M797.2,564.2c-0.2,6.5-5.2,12.5-9.3,14.8
		c-3.4,1.8-5.4,5.1-4.3,9.1c1.4,4.4,6.6,5.1,10.1,2.9c5.2-3.5,9.2-13,5.3-26.7C799,564.3,797.2,564.2,797.2,564.2z"/><path id="new-20220716_logo-light-horizontal-s-path22" class="st1" d="M812.3,554.8l-1.4,0.4c1.4,6.5,2,15.2,0.5,22.8
		C819.4,589.6,834,570.3,812.3,554.8z"/><path id="new-20220716_logo-light-horizontal-s-path23" class="st1" d="M825.8,552.8l-1.2,0.7c3.3,5.3,7.1,13.5,7.7,20.5
		C842.3,583,852.8,561.1,825.8,552.8z"/><path id="new-20220716_logo-light-horizontal-s-path24" class="st1" d="M841,549.8l-1.1,1c4.7,3.9,10.6,10.9,12.7,16.7
		C863.5,573.4,869.7,550.9,841,549.8z"/><path id="new-20220716_logo-light-horizontal-s-path25" class="st1" d="M883.4,482.9h-89.1c-0.4-2.1-1.1-4.3-1.9-6.6l-1.8,0.1
		c0.5,6.1-3.4,12-7.3,14.2c-3.5,2-6,5.3-4.7,9.6c1.4,4.6,6.7,5.6,10.4,3.4c3.9-2.6,6.7-8.5,5.9-16.9h25.2
		c-2.9,3.1-7.6,7.4-12.2,11.2l-12.2-3.4V537h2.1c6.9,0,10.9-3.6,11.1-4.7v-0.4h2.9c-6.5,10.4-20.1,23.3-35,31.1l0.8,1.4
		c14.4-3.6,27.7-10.5,37.9-18h51.3c-1.3,16.3-3.4,25.8-6,28c-0.9,0.9-2,1.2-3.9,1.2c-2.2,0-8.7-0.5-12.8-0.9v1.8
		c4.3,0.8,7.6,2.3,9.2,4.4c1.6,2.1,2.1,5.6,2,9.5c6,0,10.5-1.3,14-4c5.9-4.5,10.5-41.6,10.5-41.6h-59.5c1.5-1.3,2.9-4.5,4.2-5.8
		c3.8,0,5.3-0.8,5.9-2.3l-16.5-4.8h41.5v3.5h2.2c4.4,0,11.2-2.6,11.3-3.6v-28.3c2.1-0.5,3.7-1.6,4.4-2.5l-2-1.7
		C875.6,496.4,883.3,482.9,883.4,482.9L883.4,482.9z M868.3,497l-7.9-6.5l-6.2,9.3h-19.1l1.1,1.6h19.2v14.1h-17.5l1.1,1.6h16.5v11.2
		h-46.6v-10.7h20c1.7,0,3.1-1.8,3.1-1.8h-23.1v-12.5c6.9-1.6,13.8-3.5,18.2-5.5c3.4,1,5.5,0.6,6.7-0.6l-12.9-10.5H870
		C869.5,490,868.9,493.7,868.3,497L868.3,497z"/><path id="new-20220716_logo-light-horizontal-s-path26" class="st1" d="M1168.4,524c8.5-4.5,16.7-11.2,23.5-20.5h30.5
		c1.7,0,2.8-0.6,3.2-2.1c-4-4.3-10.7-10.4-10.7-10.4l-5.9,8.8h-14.5c1.3-2.1,2.6-4.2,3.8-6.4c2.7,0.1,4.2-0.9,4.7-2.5l-17.7-6.2
		c-3.9,15.1-11.1,29.4-18.2,38L1168.4,524L1168.4,524z"/><path id="new-20220716_logo-light-horizontal-s-path27" class="st1" d="M1250.1,570.1H1233v3.6h34c1.8,0,3.4-3.6,3.4-3.6H1250.1z"
		/><path id="new-20220716_logo-light-horizontal-s-path28" class="st1" d="M1233,588.1h41.6c1.5,0,3.1-3.8,3.1-3.8H1233V588.1z"/><path id="new-20220716_logo-light-horizontal-s-path29" class="st1" d="M1244.1,503.4h30.5c1.7,0,2.8-0.6,3.2-2.1
		c-4-4.3-10.7-10.4-10.7-10.4l-5.9,8.8h-14.5c1.3-2.1,2.6-4.2,3.8-6.4c2.7,0.1,4.2-0.9,4.7-2.5l-17.7-6.2
		c-3.1,12-8.2,23.4-13.8,31.9l-6.7-0.7v9.5h-31.3l1.1,3.8h30.2v11.1h-43.4l0.9,3.6h42.5V555h-32.4l1.1,3.8h31.3V570h-34.8l0.9,3.6
		h33.9v10.7h-42.6l0.9,3.8h41.7v2.9c0.5-0.4,1.1-0.6,1.8-0.6l10.1,0.1c0.5,0,1,0.1,1.5,0.4v-73.2
		C1235.3,513.8,1240,509.1,1244.1,503.4L1244.1,503.4z"/><path id="new-20220716_logo-light-horizontal-s-path30" class="st1" d="M1254.5,517.6l-7.3,7.8H1233v3.8h15.2v11.1H1233v3.6h15.2
		v11H1233v3.8h15.2v5.2h2.3c1.8,0,11.1-3.2,11.1-3.6v-16.4h12.9c1.7,0,2.9-3.6,2.9-3.6h-15.9v-14.8L1254.5,517.6L1254.5,517.6z"/></g><g id="new-20220716_logo-light-horizontal-s-circle1_ts" transform="translate(765.869995,126.150002) scale(1,1)"><circle id="new-20220716_logo-light-horizontal-s-circle1" class="st2" cx="535" cy="455" r="21.9"/></g><g id="new-20220716_logo-light-horizontal-s-polygon1_tr" transform="translate(767.035,35.150002) rotate(0)"><polygon id="new-20220716_logo-light-horizontal-s-polygon1" class="st3" points="535,468.9 524.2,448.4 545.7,448.4 	"/></g><g id="new-20220716_logo-light-horizontal-s-circle2_to" transform="translate(102.860001,120.959999)"><g id="new-20220716_logo-light-horizontal-s-circle2_ts" transform="scale(1,1)"><circle id="new-20220716_logo-light-horizontal-s-circle2" class="st2" cx="535" cy="455" r="13.9"/></g></g><g id="new-20220716_logo-light-horizontal-s-circle3_tr" transform="translate(403.898556,52.06) rotate(0)"><circle id="new-20220716_logo-light-horizontal-s-circle3" class="st2" cx="541.9" cy="455" r="16.9"/></g><g id="new-20220716_logo-light-horizontal-s-polygon2_to" transform="translate(49.360001,20)"><polygon id="new-20220716_logo-light-horizontal-s-polygon2" class="st3" points="535,468.4 521,441.6 549,441.6 	"/></g><g id="new-20220716_logo-light-horizontal-s-rect1_tr" transform="translate(102.860001,82.845) rotate(45)"><rect id="new-20220716_logo-light-horizontal-s-rect1" x="688.7" y="-67.9" transform="matrix(2.535182e-06 1 -1 2.535182e-06 643.4652 -756.6093)" class="st4" width="22.7" height="22.7"/></g><g id="new-20220716_logo-light-horizontal-s-rect2_to" transform="translate(99.78,-206.9)"><rect id="new-20220716_logo-light-horizontal-s-rect2" x="726.3" y="671.3" transform="matrix(0.7108 -0.7034 0.7034 0.7108 -264.9063 711.6812)" class="st4" width="13.4" height="13.4"/></g><g id="new-20220716_logo-light-horizontal-s-rect3_to" transform="translate(238.64,-458.59)"><rect id="new-20220716_logo-light-horizontal-s-rect3" x="959.4" y="964.5" transform="matrix(0.7108 -0.7034 0.7034 0.7108 -403.3008 959.4797)" class="st4" width="11.4" height="11.4"/></g><g id="new-20220716_logo-light-horizontal-s-rect4_to" transform="translate(254.68,-497.04)"><rect id="new-20220716_logo-light-horizontal-s-rect4" x="997.5" y="1002.9" transform="matrix(0.7108 -0.7034 0.7034 0.7108 -419.3412 997.3605)" class="st4" width="11.4" height="11.4"/></g><g id="new-20220716_logo-light-horizontal-s-path31_ts" transform="translate(688.664978,153.199997) scale(1,1)"><path id="new-20220716_logo-light-horizontal-s-path31" class="st3" d="M540.2,438.2l-10.1-0.1c-1.5,0-2.8,1.2-2.8,2.8
		c0,1.4,0.9,2.5,2.2,2.7l-5,9.6l8.2,18.4h0.7l0.1-11.4c-1.1-0.5-1.8-1.5-1.8-2.8c0-1.7,1.6-3.1,3.3-3.1c1.7,0,3,1.4,3,3.2v0.1
		c0,0.3-0.1,0.6-0.2,0.8c-0.3,0.8-0.9,1.5-1.7,1.8l0.1,11.5h0.7l8.4-18.4l-4.8-9.6c1.3-0.2,2.3-1.3,2.3-2.7
		C543,439.5,541.7,438.2,540.2,438.2L540.2,438.2z"/></g></svg>
