<?xml version="1.0" encoding="UTF-8"?><svg xmlns="http://www.w3.org/2000/svg" xmlns:xlink="http://www.w3.org/1999/xlink" id="new-20220716_logo-light-horizontal" viewBox="0 0 850 170" shape-rendering="geometricPrecision" text-rendering="geometricPrecision" class="path"><style>#new-20220716_logo-light-horizontal-s-circle1_ts {animation: new-20220716_logo-light-horizontal-s-circle1_ts__ts 2000ms linear infinite normal backwards;animation-delay: 8s;}@keyframes new-20220716_logo-light-horizontal-s-circle1_ts__ts {0% {transform: translate(765.869995px,126.150002px) scale(1,1) }25% {transform: translate(765.869995px,126.150002px) scale(1.1,1.1) }50% {transform: translate(765.869995px,126.150002px) scale(1,1) }75% {transform: translate(765.869995px,126.150002px) scale(0.9,0.9) }100% {transform: translate(765.869995px,126.150002px) scale(1,1) }}#new-20220716_logo-light-horizontal-s-polygon1_tr {animation: new-20220716_logo-light-horizontal-s-polygon1_tr__tr 2000ms linear infinite normal backwards;animation-delay: 8s;}@keyframes new-20220716_logo-light-horizontal-s-polygon1_tr__tr {0% {transform: translate(767.035px,35.150002px) rotate(0deg) }100% {transform: translate(767.035px,35.150002px) rotate(360deg) }}#new-20220716_logo-light-horizontal-s-circle2_to {animation: new-20220716_logo-light-horizontal-s-circle2_to__to 2000ms linear infinite normal backwards;animation-delay: 8s;}@keyframes new-20220716_logo-light-horizontal-s-circle2_to__to {0% {transform: translate(102.860001px,120.959999px) }25% {transform: translate(102.860001px,115.959999px) }50% {transform: translate(102.860001px,120.959999px) }75% {transform: translate(102.860001px,125.959999px) }100% {transform: translate(102.860001px,120.959999px) }}#new-20220716_logo-light-horizontal-s-circle2_ts {animation: new-20220716_logo-light-horizontal-s-circle2_ts__ts 2000ms linear infinite normal backwards;animation-delay: 8s;}@keyframes new-20220716_logo-light-horizontal-s-circle2_ts__ts {0% {transform: scale(1,1) }65% {transform: scale(1,0.97) }75% {transform: scale(1,0.75) }100% {transform: scale(1,1) }}#new-20220716_logo-light-horizontal-s-circle3_tr {animation: new-20220716_logo-light-horizontal-s-circle3_tr__tr 2000ms linear infinite normal backwards;animation-delay: 8s;}@keyframes new-20220716_logo-light-horizontal-s-circle3_tr__tr {0% {transform: translate(403.898556px,52.06px) rotate(0deg) }100% {transform: translate(403.898556px,52.06px) rotate(360deg) }}#new-20220716_logo-light-horizontal-s-polygon2_to {animation: new-20220716_logo-light-horizontal-s-polygon2_to__to 2000ms linear infinite normal backwards;animation-delay: 8s;}@keyframes new-20220716_logo-light-horizontal-s-polygon2_to__to {0% {transform: translate(49.360001px,20px) }25% {transform: translate(49.360001px,17px) }50% {transform: translate(49.360001px,20px) }75% {transform: translate(49.360001px,23px) }100% {transform: translate(49.360001px,20px) }}#new-20220716_logo-light-horizontal-s-rect1_tr {animation: new-20220716_logo-light-horizontal-s-rect1_tr__tr 2000ms linear infinite normal backwards;animation-delay: 8s;}@keyframes new-20220716_logo-light-horizontal-s-rect1_tr__tr {0% {transform: translate(102.860001px,82.845px) rotate(45deg) }25% {transform: translate(102.860001px,82.845px) rotate(135deg) }50% {transform: translate(102.860001px,82.845px) rotate(225deg) }75% {transform: translate(102.860001px,82.845px) rotate(315deg) }100% {transform: translate(102.860001px,82.845px) rotate(405deg) }}#new-20220716_logo-light-horizontal-s-rect2_to {animation: new-20220716_logo-light-horizontal-s-rect2_to__to 2000ms linear infinite normal backwards;animation-delay: 8s;}@keyframes new-20220716_logo-light-horizontal-s-rect2_to__to {0% {transform: translate(99.78px,-206.9px) }25% {transform: translate(99.78px,-210.9px) }50% {transform: translate(99.78px,-206.9px) }75% {transform: translate(99.78px,-202.9px) }100% {transform: translate(99.78px,-206.9px) }}#new-20220716_logo-light-horizontal-s-rect3_to {animation: new-20220716_logo-light-horizontal-s-rect3_to__to 2000ms linear infinite normal backwards;animation-delay: 8s;}@keyframes new-20220716_logo-light-horizontal-s-rect3_to__to {0% {transform: translate(238.64px,-458.59px) }25% {transform: translate(235.64px,-458.59px) }50% {transform: translate(238.64px,-458.59px) }75% {transform: translate(241.64px,-458.59px) }100% {transform: translate(238.64px,-458.59px) }}#new-20220716_logo-light-horizontal-s-rect4_to {animation: new-20220716_logo-light-horizontal-s-rect4_to__to 2000ms linear infinite normal backwards;animation-delay: 8s;}@keyframes new-20220716_logo-light-horizontal-s-rect4_to__to {0% {transform: translate(254.68px,-497.04px) }25% {transform: translate(257.68px,-497.04px) }50% {transform: translate(254.68px,-497.04px) }75% {transform: translate(251.68px,-497.04px) }100% {transform: translate(254.68px,-497.04px) }}#new-20220716_logo-light-horizontal-s-path31_ts {animation: new-20220716_logo-light-horizontal-s-path31_ts__ts 2000ms linear infinite normal backwards;animation-delay: 8s;}@keyframes new-20220716_logo-light-horizontal-s-path31_ts__ts {0% {transform: translate(688.664978px,153.199997px) scale(1,1) }25% {transform: translate(688.664978px,153.199997px) scale(0,1) }50% {transform: translate(688.664978px,153.199997px) scale(1,1) }75% {transform: translate(688.664978px,153.199997px) scale(0,1) }100% {transform: translate(688.664978px,153.199997px) scale(1,1) }}.path {stroke-dashoffset:1940;stroke-dasharray:1940;fill-opacity: 0;animation: draw 12s linear 1 ;animation-fill-mode: forwards;stroke:#404040;stroke-miterlimit:10;stroke-width:1 }@keyframes draw {40%{fill-opacity: 0;}41%{fill-opacity: 1;}42%{fill-opacity: 0;}43%{fill-opacity: 1;}44%{fill-opacity: 0;}45%{fill-opacity: 1;}70%{stroke-dashoffset:0;stroke-width:0;}100%{stroke-dashoffset:0;fill-opacity: 1;stroke-width:0;}}</style><g id="new-20220716_logo-light-horizontal-s-g1"><path id="new-20220716_logo-light-horizontal-s-path1" d="M76.32,66.05L64.43,54.87L57.6,64.4h-9.06c.35-6.24.59-14.47.71-20.72h28.71c1.65,0,3.3-1.65,3.3-1.65h-81.26l.94,1.65h33.49c.94,31.34-.24,64.64-14.24,90.78l1.06,1.17C40.08,117.94,46.2,92.84,48.32,66.18h10.47c-.94,32.9-2.47,47.86-5.65,51.11-1.06,1.04-1.88,1.43-3.65,1.43-2.24,0-7.41-.39-10.47-.65v1.82c3.65.91,6.35,2.47,7.77,4.55c1.41,1.95,1.77,5.46,1.77,9.75c5.53,0,10.12-1.56,13.77-5.2c6-5.98,8.12-20.29,9.06-60.48c2.59-.52,4-1.3,4.94-2.47Z" fill="#404040" /><path id="new-20220716_logo-light-horizontal-s-path2" d="M133.51,61.37l.24-1.82c-10.94-7.93-21.89-21.72-26.48-38.76c3.18-.39,4.35-1.3,4.71-3.12L93.03,12.86C90.79,31.07,82.91,58.25,71.97,75.29l1.18,1.04c15.06-12.75,26.24-32.64,32.48-50.46c3.3,18.34,9.18,36.55,18.12,48.51.82-5.59,4.47-10.01,9.77-13.01Z" fill="#404040" /><path id="new-20220716_logo-light-horizontal-s-path3" d="M739.03,56.25l.94,3.64h51.78c1.65,0,3.18-3.64,3.18-3.64h-55.9Z" fill="#404040" /><path id="new-20220716_logo-light-horizontal-s-path4" d="M745.38,76.67h41.19c1.65,0,3.06-3.77,3.06-3.77h-45.19l.94,3.77Z" fill="#404040" /><path id="new-20220716_logo-light-horizontal-s-path5" d="M745.38,93.45h41.19c1.65,0,3.06-3.77,3.06-3.77h-45.19l.94,3.77Z" fill="#404040" /><path id="new-20220716_logo-light-horizontal-s-path6" d="M845.17,133.24l-.47-17.82h-1.29c-2,8.06-3.88,14.83-5.3,17.17-.82,1.3-1.65,1.69-3.3,1.82-1.77.13-5.77.26-10.36.26h-12.24c-4.35,0-5.18-.78-5.18-3.12v-47.34h21.53v11.58h2c4.47,0,11.06-2.6,11.18-3.51v-43.44c2.94-.65,4.83-2.08,5.77-3.25L833.62,33.76l-6.47,8.19h-35.78l1.06,3.64h36.13v34.99h-34.6v54.1c0,10.4,3.3,13.01,15.77,13.01h13.42c21.3,0,26.83-2.34,26.83-8.58c0-2.6-.94-4.16-4.83-5.85Z" fill="#404040" /><path id="new-20220716_logo-light-horizontal-s-path7" d="M539.15,60.72c12.36,8.32,21.42-18.21-10.36-19.77l-.94,1.04c4.59,4.42,9.77,11.83,11.3,18.73Z" fill="#404040" /><path id="new-20220716_logo-light-horizontal-s-path8" d="M550.57,86.99c1.65-6.5,10.36-34.33,15.18-49.16l-1.76-.65q-22.59,49.29-25.3,54.1c-1.41,2.6-2,2.73-3.77,2.73h-5.53v2.34c2.59.26,4.59.91,6.24,2.21c2.82,2.08,3.3,13.66,1.06,27.31c1.06,4.68,3.65,6.63,6.47,6.63c5.88,0,9.89-4.16,10.12-10.79.35-11.31-4.47-15.74-4.71-22.5c0-3.38.94-7.93,2-12.22Z" fill="#404040" /><path id="new-20220716_logo-light-horizontal-s-path9" d="M537.62,12.47l-.94,1.04c4.59,4.68,10.36,12.75,12.36,19.77c13.06,7.8,21.42-19.25-11.41-20.81Z" fill="#404040" /><path id="new-20220716_logo-light-horizontal-s-path10" d="M608.72,56.82h27.87c1.65,0,3.3-3.77,3.3-3.77h-31.16v3.77Z" fill="#404040" /><path id="new-20220716_logo-light-horizontal-s-path11" d="M527.33,108.74c-5.65-5.33-15.06-13.01-15.06-13.01l-8.24,11.31h-12.33v3.77h32.45c1.65,0,2.82-.65,3.18-2.08Z" fill="#404040" /><path id="new-20220716_logo-light-horizontal-s-path12" d="M513.56,149.84h-21.86v3.77h42.34c1.76,0,3.06-.65,3.41-2.08-5.88-5.46-15.42-13.53-15.42-13.53l-8.47,11.83Z" fill="#404040" /><path id="new-20220716_logo-light-horizontal-s-path13" d="M530.86,71.68c-5.77-5.33-14.83-12.62-14.83-12.62l-8.12,11.05h-16.21v3.64h35.63c1.88,0,3.18-.65,3.53-2.08Z" fill="#404040" /><path id="new-20220716_logo-light-horizontal-s-path14" d="M474.14,70.12h-18.95c2.94-5.59,5.41-11.7,7.77-18.34c2.71,0,4.24-1.17,4.59-2.73l-19.77-6.5c-4.12,23.54-12.83,47.08-21.89,61.91l1.29,1.17c10.12-7.8,18.83-18.47,26.13-31.86h20.83v33.29h-33.3l.94,3.77h32.36v39.02h-47.19l.94,3.77h61.11v-134.11l-14.86-5.73v56.34Z" fill="#404040" /><path id="new-20220716_logo-light-horizontal-s-path15" d="M196.98,130.31v-20.55h33.19c1.77,0,2.94-.35,3.3-1.78-5.3-5.46-14.36-13.69-14.36-13.69l-7.88,13.69h-14.24v-19.94h43.42c1.65,0,2.94-.22,3.3-1.65-4.12-4.13-4.04-4.56-13.3-13.04l-7.53,13.04h-89.08l.94,1.65h47.54v40.32c-6.94-2.08-12.12-5.98-16.12-13.27c2.24-4.68,3.77-9.36,4.94-14.18c2.94,0,4-1.17,4.47-2.99l-15.58-3.04c-1.45,20.32-28.41,59.1-45.13,72.76l.94,1.3c15.65-6.76,42.82-39.81,48.82-50.86c6.71,20.55,18.24,25.62,39.19,25.62h33.77c0-5.72,2.12-10.92,6.47-11.97v-1.56c-9.41.26-31.07.26-40.01.26-2.47,0-4.82,0-7.06-.13Z" fill="#404040" /><path id="new-20220716_logo-light-horizontal-s-path16" d="M167.81,76.18v-43.42L153.32,26.4v54.49h2.12c5.58,0,11.56-3.03,12.37-4.71Z" fill="#404040" /><path id="new-20220716_logo-light-horizontal-s-path17" d="M210.04,78.68h2.47c4.71,0,12.12-2.86,12.24-3.64v-39.89h-54.24v1.65h39.53v15.78h-39.53v1.65h39.53v16.04h-39.53v1.78h39.53v6.63Z" fill="#404040" /><path id="new-20220716_logo-light-horizontal-s-path18" d="M606,29.25c7.88-1.04,25.26-4.38,26.67-5.55L621.18,11.3c-12.94,6.63-38.25,15.35-58.13,19.77l.24,1.95c9.18-.26,19.18-1.04,28.71-2.08v22.11h-30.71l.94,3.77h29.77v24.97h-9.89l-14.12-6.24v56.31h1.76c5.77,0,11.65-3.25,11.65-4.68v-6.63h32.7v-3.77h-32.7v-31.21h32.7v-3.77h-8.1v-52.55Z" fill="#404040" /><path id="new-20220716_logo-light-horizontal-s-path19" d="M617.06,85.56v45.65h2.35c4.71,0,11.3-3.25,11.41-4.29v-38.89c2.35-.52,4.83-6.24,4.83-6.24h-18.59v3.77Z" fill="#404040" /><path id="new-20220716_logo-light-horizontal-s-path20" d="M442.24,0h-111.21l.94,3.78h44.37v165.16h2.71c7.3,0,12-3.51,12-4.68v-160.48h47.66c1.76,0,3.53-3.78,3.53-3.78Z" fill="#404040" /><path id="new-20220716_logo-light-horizontal-s-path21" d="M262.2,109.22c-.24,6.5-5.18,12.49-9.3,14.83-3.41,1.82-5.41,5.07-4.35,9.1c1.41,4.42,6.59,5.07,10.12,2.86c5.18-3.51,9.18-13.01,5.3-26.66l-1.77-.13Z" fill="#404040" /><path id="new-20220716_logo-light-horizontal-s-path22" d="M277.3,99.83l-1.41.39c1.41,6.5,2,15.22.47,22.76c8,11.58,22.59-7.67.94-23.15Z" fill="#404040" /><path id="new-20220716_logo-light-horizontal-s-path23" d="M290.83,97.75l-1.18.65c3.3,5.33,7.06,13.53,7.65,20.55c10,9.1,20.48-12.88-6.47-21.2Z" fill="#404040" /><path id="new-20220716_logo-light-horizontal-s-path24" d="M306.01,94.76l-1.06,1.04c4.71,3.9,10.59,10.92,12.71,16.65c10.83,5.98,17.06-16.52-11.65-17.69Z" fill="#404040" /><path id="new-20220716_logo-light-horizontal-s-path25" d="M348.37,27.91h-89.08c-.35-2.08-1.06-4.29-1.88-6.63l-1.77.13c.47,6.11-3.41,11.97-7.3,14.18-3.53,1.95-6,5.33-4.71,9.62c1.41,4.55,6.71,5.59,10.36,3.38c3.88-2.6,6.71-8.45,5.88-16.91h25.18c-2.94,3.12-7.65,7.41-12.24,11.18l-12.24-3.38v42.53h2.12c6.94,0,10.94-3.64,11.06-4.68v-.39h2.94c-6.47,10.4-20.12,23.28-34.95,31.08l.82,1.43c14.36-3.64,27.65-10.53,37.89-17.95h51.31c-1.29,16.26-3.41,25.75-6,27.96-.94.91-2,1.17-3.88,1.17-2.24,0-8.71-.52-12.83-.91v1.82c4.35.78,7.65,2.34,9.18,4.42c1.65,2.08,2.12,5.59,2,9.49c6,0,10.47-1.3,14-4.03c5.88-4.55,10.47-41.58,10.47-41.58h-59.55c1.53-1.3,2.94-4.46,4.24-5.76c3.77,0,5.3-.78,5.88-2.34l-16.48-4.81h41.54v3.51h2.24c4.35,0,11.18-2.6,11.3-3.64v-28.35c2.12-.52,3.65-1.56,4.35-2.47l-2-1.69c4.35-2.86,12.12-16.39,12.12-16.39ZM333.31,41.96l-7.88-6.5-6.24,9.27h-19.06l1.06,1.65h19.18v14.08h-17.53l1.06,1.65h16.48v11.19h-46.6v-10.66h20.01c1.65,0,3.06-1.78,3.06-1.78h-23.07v-12.52c6.94-1.56,13.77-3.51,18.24-5.46c3.41,1.04,5.53.65,6.71-.65L285.79,31.7h49.19c-.47,3.25-1.06,7.02-1.65,10.27Z" fill="#404040" /><path id="new-20220716_logo-light-horizontal-s-path26" d="M633.39,68.98c8.47-4.55,16.71-11.19,23.54-20.55h30.48c1.65,0,2.82-.65,3.18-2.08-4-4.29-10.71-10.4-10.71-10.4L674,44.79h-14.47c1.29-2.08,2.59-4.16,3.77-6.37c2.71.13,4.24-.91,4.71-2.47l-17.65-6.24C646.48,44.8,639.3,59.1,632.12,67.69l1.29,1.3Z" fill="#404040" /><path id="new-20220716_logo-light-horizontal-s-path27" d="M715.1,115.07h-17.1v3.64h34.04c1.76,0,3.41-3.64,3.41-3.64h-20.35Z" fill="#404040" /><path id="new-20220716_logo-light-horizontal-s-path28" d="M698,133.14h41.57c1.53,0,3.06-3.77,3.06-3.77h-44.63v3.77Z" fill="#404040" /><path id="new-20220716_logo-light-horizontal-s-path29" d="M709.12,48.43h30.48c1.65,0,2.82-.65,3.18-2.08-4-4.29-10.71-10.4-10.71-10.4l-5.88,8.84h-14.47c1.29-2.08,2.59-4.16,3.77-6.37c2.71.13,4.24-.91,4.71-2.47l-17.65-6.24c-3.08,11.96-8.23,23.43-13.81,31.94l-6.69-.69v9.49h-31.3l1.06,3.77h30.24v11.05h-43.42l.94,3.64h42.48v11.05h-32.36l1.06,3.77h31.3v11.31h-34.83l.94,3.64h33.89v10.66h-42.6l.94,3.77h41.66v2.87c.48-.39,1.08-.63,1.75-.62l10.07.05c.53-.01,1.03.15,1.46.42v-73.15c4.96-3.83,9.65-8.53,13.82-14.25Z" fill="#404040" /><path id="new-20220716_logo-light-horizontal-s-path30" d="M719.45,62.62l-7.3,7.84h-14.15v3.77h15.21v11.05h-15.21v3.64h15.21v11.05h-15.21v3.77h15.21v5.2h2.35c1.77,0,11.06-3.25,11.06-3.64v-16.39h12.94c1.65,0,2.94-3.64,2.94-3.64h-15.89v-14.83l-7.18-7.84Z" fill="#404040" /></g><g id="new-20220716_logo-light-horizontal-s-circle1_ts" transform="translate(765.869995,126.150002) scale(1,1)"><circle id="new-20220716_logo-light-horizontal-s-circle1" r="21.88" transform="translate(0.000005,-0.000002)" fill="#ffa81c" /></g><g id="new-20220716_logo-light-horizontal-s-polygon1_tr" transform="translate(767.035,35.150002) rotate(0)"><polygon id="new-20220716_logo-light-horizontal-s-polygon1" points="766.98,49.06 756.27,28.56 777.69,28.56 766.98,49.06" transform="translate(-767.035,-35.150002)" fill="#ff7403" /></g><g id="new-20220716_logo-light-horizontal-s-circle2_to" transform="translate(102.860001,120.959999)"><g id="new-20220716_logo-light-horizontal-s-circle2_ts" transform="scale(1,1)"><circle id="new-20220716_logo-light-horizontal-s-circle2" r="13.93" transform="translate(-0.000001,0.000001)" fill="#ffa81c" /></g></g><g id="new-20220716_logo-light-horizontal-s-circle3_tr" transform="translate(403.898556,52.06) rotate(0)"><circle id="new-20220716_logo-light-horizontal-s-circle3" r="16.91" transform="translate(6.911444,0.000002)" fill="#ffa81c" /></g><g id="new-20220716_logo-light-horizontal-s-polygon2_to" transform="translate(49.360001,20)"><polygon id="new-20220716_logo-light-horizontal-s-polygon2" points="49.36,33.43 35.33,6.57 63.39,6.57 49.36,33.43" transform="translate(-49.360001,-20)" fill="#ff7403" /></g><g id="new-20220716_logo-light-horizontal-s-rect1_tr" transform="translate(102.860001,82.845) rotate(45)"><rect id="new-20220716_logo-light-horizontal-s-rect1" width="22.75" height="22.75" rx="0" ry="0" transform="translate(-11.379356,-11.370644)" fill="#1c94ff" /></g><g id="new-20220716_logo-light-horizontal-s-rect2_to" transform="translate(99.78,-206.9)"><rect id="new-20220716_logo-light-horizontal-s-rect2" width="13.35" height="13.35" rx="0" ry="0" transform="rotate(45.299969) translate(291.11,9.43)" fill="#1c94ff" /></g><g id="new-20220716_logo-light-horizontal-s-rect3_to" transform="translate(238.64,-458.59)"><rect id="new-20220716_logo-light-horizontal-s-rect3" width="11.45" height="11.45" rx="0" ry="0" transform="rotate(45.299969) translate(663.05,50.9)" fill="#1c94ff" /></g><g id="new-20220716_logo-light-horizontal-s-rect4_to" transform="translate(254.68,-497.04)"><rect id="new-20220716_logo-light-horizontal-s-rect4" width="11.45" height="11.45" rx="0" ry="0" transform="rotate(45.299969) translate(717.14,50.9)" fill="#1c94ff" /></g><g id="new-20220716_logo-light-horizontal-s-path31_ts" transform="translate(688.664978,153.199997) scale(1,1)"><path id="new-20220716_logo-light-horizontal-s-path31" d="M693.84,136.45l-10.07-.05c-1.54,0-2.77,1.21-2.78,2.75c0,1.35.93,2.47,2.21,2.72l-4.95,9.64l8.25,18.36h.73l.06-11.42c-1.06-.45-1.81-1.53-1.84-2.76.03-1.71,1.56-3.12,3.28-3.11c1.71,0,2.97,1.45,2.97,3.16v.06c-.03.3-.08.57-.16.83-.28.82-.89,1.48-1.71,1.84l.08,11.53h.73l8.44-18.42-4.79-9.63c1.32-.21,2.31-1.33,2.32-2.72c0-1.54-1.25-2.82-2.75-2.78Z" transform="translate(-688.664978,-153.199997)" fill="#ff7403" /></g></svg>