<?xml version="1.0" encoding="UTF-8"?><svg id="uuid-4bb9c10d-137e-4298-ab90-31acb04c778a" xmlns="http://www.w3.org/2000/svg" viewBox="0 0 192 192"><path d="M62.78,40.02c-7.43,10.19-16.4,17.41-25.62,22.37l-1.41-1.42c7.82-9.34,15.63-24.92,19.86-41.34l19.22,6.8c-.51,1.7-2.18,2.83-5.12,2.69-1.28,2.41-2.69,4.67-4.1,6.94h15.76l6.41-9.63s7.3,6.65,11.66,11.33c-.38,1.56-1.67,2.26-3.46,2.26h-33.18Z" style="fill:#404040; stroke-width:0px;"/><path d="M148.27,112.56h-40.77v3.96h37.05c1.92,0,3.72-3.96,3.72-3.96Z" style="fill:#404040; stroke-width:0px;"/><path d="M107.5,128.14v4.11h45.25c1.67,0,3.33-4.11,3.33-4.11h-48.58Z" style="fill:#404040; stroke-width:0px;"/><path d="M104.56,55.15l-14.45-1.48v10.34h-34.08l1.15,4.11h32.92v12.03h-47.27l1.02,3.96h46.25v12.03h-35.23l1.15,4.11h34.08v12.32h-37.92l1.02,3.96h36.9v11.61h-46.38l1.02,4.11h45.35v8.48h2.82c4.57,0,9.82-2.33,11.64-3.96V55.15Z" style="fill:#404040; stroke-width:0px;"/><path d="M119.61,40.02c-7.43,10.19-16.4,17.41-25.62,22.37l-1.41-1.42c7.82-9.34,15.63-24.92,19.86-41.34l19.22,6.8c-.51,1.7-2.18,2.83-5.12,2.69-1.28,2.41-2.69,4.67-4.1,6.94h15.76l6.41-9.63s7.3,6.65,11.66,11.33c-.38,1.56-1.67,2.26-3.46,2.26h-33.18Z" style="fill:#404040; stroke-width:0px;"/><path d="M138.66,80.14v-16.14l-7.81-8.54-7.94,8.54h-15.4v4.11h16.55v12.03h-16.55v3.96h16.55v12.03h-16.55v4.11h16.55v5.66h2.56c1.92,0,12.04-3.54,12.04-3.96v-17.84h14.09c1.79,0,3.2-3.96,3.2-3.96h-17.29Z" style="fill:#404040; stroke-width:0px;"/><rect x="69.46" y="42.71" width="12.46" height="12.46" transform="translate(57.24 -39.28) rotate(45.3)" style="fill:#1c94ff; stroke-width:0px;"/><rect x="128.34" y="42.71" width="12.46" height="12.46" transform="translate(74.71 -81.14) rotate(45.3)" style="fill:#1c94ff; stroke-width:0px;"/><path d="M102.97,135.84l-10.96-.06c-1.68,0-3.02,1.32-3.03,2.99,0,1.47,1.02,2.69,2.4,2.97l-5.39,10.49,8.98,19.99h.79s.07-12.43.07-12.43c-1.15-.49-1.97-1.67-2-3.01.03-1.86,1.7-3.39,3.57-3.39,1.86,0,3.23,1.58,3.23,3.44,0,.02,0,.04,0,.06-.03.32-.09.62-.18.9-.3.89-.96,1.62-1.86,2l.08,12.55h.79s9.19-20.05,9.19-20.05l-5.22-10.48c1.44-.23,2.52-1.45,2.53-2.96,0-1.68-1.37-3.07-2.99-3.03Z" style="fill:#ff7403; stroke-width:0px;"/></svg>